<?xml version="1.0" encoding="utf-8"?>
<svg
	version="1.1"
	xmlns="http://www.w3.org/2000/svg"
	xmlns:xlink="http://www.w3.org/1999/xlink"
	x="0%" y="0%"
	width="100%" height="100%"
	viewBox="0 0 24.0 24.0"
	enable-background="new 0 0 24.0 24.0"
	xml:space="preserve">
	<path
		fill="#FFFFFF"
		fill-opacity="0.000"
		fill-rule="nonzero"
		stroke="#292929"
		stroke-opacity="1.000"
		stroke-width="1.224"
		stroke-linejoin="miter"
		stroke-linecap="square"
		d="M12.03,1.64C17.86,1.64,22.59,6.40,22.59,12.27C22.59,18.14,17.86,22.90,12.03,22.90C6.20,22.90,1.47,18.14,1.47,12.27C1.47,6.40,6.20,1.64,12.03,1.64z"/>
	<path
		fill="#FFFFFF"
		fill-opacity="1.000"
		fill-rule="nonzero"
		stroke="#292929"
		stroke-opacity="1.000"
		stroke-width="1.152"
		stroke-linejoin="miter"
		stroke-linecap="square"
		d="M8.54,12.28L1.71,12.28C2.11,27.17,22.36,25.34,22.59,12.30L15.22,12.33"/>
	<path
		fill="#E02600"
		fill-opacity="1.000"
		fill-rule="nonzero"
		stroke="#292929"
		stroke-opacity="1.000"
		stroke-width="1.152"
		stroke-linejoin="miter"
		stroke-linecap="square"
		d="M8.54,12.28L1.71,12.28C2.11,-2.60,22.36,-0.78,22.59,12.27L15.22,12.23"/>
	<path
		fill="#FFFFFF"
		fill-opacity="1.000"
		fill-rule="nonzero"
		stroke="#292929"
		stroke-opacity="1.000"
		stroke-width="1.152"
		stroke-linejoin="miter"
		stroke-linecap="square"
		d="M11.98,9.35C13.61,9.35,14.93,10.67,14.93,12.31C14.93,13.95,13.61,15.27,11.98,15.27C10.36,15.27,9.04,13.95,9.04,12.31C9.04,10.67,10.36,9.35,11.98,9.35z"/>
	<path
		fill="#292929"
		fill-opacity="1.000"
		fill-rule="nonzero"
		stroke="#292929"
		stroke-opacity="1.000"
		stroke-width="0.312"
		stroke-linejoin="miter"
		stroke-linecap="square"
		d="M12.03,11.24C12.60,11.24,13.06,11.70,13.06,12.27C13.06,12.84,12.60,13.30,12.03,13.30C11.46,13.30,11.00,12.84,11.00,12.27C11.00,11.70,11.46,11.24,12.03,11.24z"/>
</svg>